<svg xmlns="http://www.w3.org/2000/svg" xmlns:xlink="http://www.w3.org/1999/xlink" width="135" height="40" viewBox="0 0 135 40"><defs><linearGradient id="a" x1="0.808" y1="0.5" x2="-1.571" y2="0.5" gradientUnits="objectBoundingBox"><stop offset="0" stop-color="#fee000"/><stop offset="0.42" stop-color="#fbbc0e"/><stop offset="0.78" stop-color="#faa418"/><stop offset="1" stop-color="#f99b1c"/></linearGradient><linearGradient id="b" x1="0.862" y1="0.178" x2="-0.501" y2="1.947" gradientUnits="objectBoundingBox"><stop offset="0" stop-color="#ef4547"/><stop offset="1" stop-color="#c6186d"/></linearGradient><linearGradient id="c" x1="-0.508" y1="-0.954" x2="0.606" y2="0.489" gradientUnits="objectBoundingBox"><stop offset="0" stop-color="#279e6f"/><stop offset="0.04" stop-color="#2ba06f"/><stop offset="0.46" stop-color="#53b26c"/><stop offset="0.8" stop-color="#6bbd6a"/><stop offset="1" stop-color="#74c169"/></linearGradient></defs><g transform="translate(-12607 -13148)"><rect width="135" height="40" rx="5" transform="translate(12607 13148)" fill="#251f68"/><path d="M140,10.8a4.2,4.2,0,0,1,4.2,4.2V45a4.2,4.2,0,0,1-4.2,4.2H15A4.2,4.2,0,0,1,10.8,45V15A4.2,4.2,0,0,1,15,10.8H140m0-.8H15a5,5,0,0,0-5,5V45a5,5,0,0,0,5,5H140a5,5,0,0,0,5-5V15A5,5,0,0,0,140,10Z" transform="translate(12597 13138)" fill="#a7a6a6"/><g transform="translate(12597 13138)"><path d="M57.42,20.24a2.72,2.72,0,0,1-.75,2,2.9,2.9,0,0,1-2.2.88,3,3,0,0,1-2.21-.9,3.135,3.135,0,0,1,3.44-5.11,2.54,2.54,0,0,1,.94.67l-.53.53a2,2,0,0,0-1.64-.72,2.4,2.4,0,1,0,1.68,4.13,1.92,1.92,0,0,0,.5-1.22H54.47v-.72h2.91a3.75,3.75,0,0,1,.04.46Z" fill="#fff" stroke="#fff" stroke-miterlimit="10" stroke-width="0.2"/><path d="M62,17.74H59.3v1.9h2.46v.72H59.3v1.9H62V23H58.52V17H62Z" fill="#fff" stroke="#fff" stroke-miterlimit="10" stroke-width="0.2"/><path d="M65.28,23h-.77V17.74H62.83V17H67v.74H65.28Z" fill="#fff" stroke="#fff" stroke-miterlimit="10" stroke-width="0.2"/><path d="M69.94,23V17h.77v6Z" fill="#fff" stroke="#fff" stroke-miterlimit="10" stroke-width="0.2"/><path d="M74.13,23h-.77V17.74H71.68V17H75.8v.74H74.13Z" fill="#fff" stroke="#fff" stroke-miterlimit="10" stroke-width="0.2"/><path d="M83.61,22.22a3.11,3.11,0,0,1-4.4,0,3.24,3.24,0,0,1,0-4.44,2.93,2.93,0,0,1,2.2-.91,3,3,0,0,1,2.2.91A3.07,3.07,0,0,1,84.49,20,3,3,0,0,1,83.61,22.22Zm-3.83-.5a2.29,2.29,0,0,0,3.26,0,2.54,2.54,0,0,0,0-3.44,2.29,2.29,0,0,0-3.26,0,2.54,2.54,0,0,0,0,3.44Z" fill="#fff" stroke="#fff" stroke-miterlimit="10" stroke-width="0.2"/><path d="M85.58,23V17h.93l2.92,4.67h0V17h.77v6h-.8l-3.05-4.89h0V23Z" fill="#fff" stroke="#fff" stroke-miterlimit="10" stroke-width="0.2"/></g><path d="M78.14,31.75A4.26,4.26,0,1,0,82.41,36a4.19,4.19,0,0,0-4.27-4.25Zm0,6.83A2.58,2.58,0,1,1,80.54,36a2.46,2.46,0,0,1-2.4,2.58Zm-9.32-6.83A4.26,4.26,0,1,0,73.09,36a4.19,4.19,0,0,0-4.27-4.25Zm0,6.83A2.58,2.58,0,1,1,71.22,36a2.46,2.46,0,0,1-2.4,2.58ZM57.74,33.06v1.8h4.32a3.77,3.77,0,0,1-1,2.27,4.42,4.42,0,0,1-3.34,1.32,4.8,4.8,0,0,1,0-9.6A4.64,4.64,0,0,1,61,30.14l1.27-1.27a6.3,6.3,0,0,0-4.53-1.82,6.61,6.61,0,1,0,0,13.21,6.07,6.07,0,0,0,4.61-1.85,6,6,0,0,0,1.56-4.23,6.27,6.27,0,0,0-.09-1.12Zm45.31,1.4A3.929,3.929,0,0,0,95.41,36a4.23,4.23,0,0,0,7.76,2.37l-1.45-1a2.41,2.41,0,0,1-2.09,1.17,2.15,2.15,0,0,1-2.06-1.29l5.69-2.35Zm-5.8,1.42a2.34,2.34,0,0,1,2.23-2.49,1.64,1.64,0,0,1,1.57.91ZM92.63,40H94.5V27.5H92.63Zm-3.06-7.3H89.5a2.94,2.94,0,0,0-2.24-1,4.26,4.26,0,0,0,0,8.51,2.88,2.88,0,0,0,2.24-1h.07v.61c0,1.63-.87,2.5-2.27,2.5a2.36,2.36,0,0,1-2.15-1.51l-1.62.67A4,4,0,0,0,87.3,44c2.19,0,4-1.29,4-4.43V32H89.57Zm-2.15,5.88a2.58,2.58,0,0,1,0-5.15A2.39,2.39,0,0,1,89.7,36a2.38,2.38,0,0,1-2.28,2.58ZM111.81,27.5h-4.48V40h1.87V35.26h2.61a3.89,3.89,0,1,0,0-7.76Zm0,6H109.2V29.24h2.65a2.14,2.14,0,0,1,0,4.28Zm11.54-1.79a3.49,3.49,0,0,0-3.33,1.91l1.65.69a1.78,1.78,0,0,1,1.71-.91,1.8,1.8,0,0,1,2,1.61v.12a4.18,4.18,0,0,0-1.95-.48c-1.78,0-3.6,1-3.6,2.82a2.89,2.89,0,0,0,3.11,2.75A2.65,2.65,0,0,0,125.32,39h.06v1h1.8V35.19c0-2.19-1.66-3.46-3.79-3.46Zm-.23,6.85c-.61,0-1.46-.31-1.46-1.06,0-1,1.06-1.34,2-1.34a3.32,3.32,0,0,1,1.7.42,2.26,2.26,0,0,1-2.2,2ZM133.74,32l-2.14,5.42h-.06L129.32,32h-2l3.33,7.58-1.9,4.21h1.95L135.82,32Zm-16.8,8h1.86V27.5h-1.86Z" transform="translate(12597 13138)" fill="#fff"/><g transform="translate(12597 13138)"><path d="M20.44,17.55A1.94,1.94,0,0,0,20,19V41.1a1.94,1.94,0,0,0,.47,1.4l.07.07L32.89,30.15v-.3L20.51,17.48Z" fill="#5bc9f4"/><path d="M37,34.27l-4.12-4.12v-.3L37,25.73l.1.05L42,28.56c1.39.79,1.39,2.09,0,2.88l-4.89,2.78Z" fill="url(#a)"/><path d="M37.11,34.22,32.89,30,20.44,42.45a1.61,1.61,0,0,0,2.07.06l14.6-8.29" fill="url(#b)"/><path d="M37.11,25.78l-14.6-8.29a1.61,1.61,0,0,0-2.07.06L32.89,30Z" fill="url(#c)"/></g></g></svg>