<svg xmlns="http://www.w3.org/2000/svg" xmlns:xlink="http://www.w3.org/1999/xlink" width="92.373" height="92.383" viewBox="0 0 92.373 92.383"><defs><filter id="a" x="-3" y="-2" width="98.373" height="98.383" filterUnits="userSpaceOnUse"><feOffset dy="1" input="SourceAlpha"/><feGaussianBlur stdDeviation="1" result="b"/><feFlood flood-opacity="0.161"/><feComposite operator="in" in2="b"/><feComposite in="SourceGraphic"/></filter><clipPath id="c"><g transform="matrix(1, 0, 0, 1, 0, 0)" filter="url(#a)"><rect width="92.373" height="92.383" rx="4" transform="translate(11473 505)" fill="#3c4576"/></g></clipPath></defs><g transform="translate(-11473 -505)" opacity="0.15" clip-path="url(#c)"><g transform="translate(11447.674 595.826) rotate(-90)"><g transform="translate(0 0)" fill="none" stroke="#ff6f08" stroke-linecap="round" stroke-linejoin="round" stroke-width="2" stroke-dasharray="12 4"><rect width="115.954" height="115.954" stroke="none"/><rect x="1" y="1" width="113.954" height="113.954" fill="none"/></g><g transform="translate(3.792 3.579)" fill="none" stroke="#ff6f08" stroke-linecap="round" stroke-linejoin="round" stroke-width="2" stroke-dasharray="12 4"><rect width="108.706" height="108.706" stroke="none"/><rect x="1" y="1" width="106.706" height="106.706" fill="none"/></g><g transform="translate(7.946 7.979)" fill="none" stroke="#ff6f08" stroke-linecap="round" stroke-linejoin="round" stroke-width="2" stroke-dasharray="12 4"><rect width="100.01" height="100.01" stroke="none"/><rect x="1" y="1" width="98.01" height="98.01" fill="none"/></g><g transform="translate(12.463 13.201)"><g transform="translate(0 0)" fill="none" stroke="#ff6f08" stroke-linecap="round" stroke-linejoin="round" stroke-width="2" stroke-dasharray="12 4"><rect width="89.864" height="89.864" stroke="none"/><rect x="1" y="1" width="87.864" height="87.864" fill="none"/></g></g><g transform="translate(17.608 17.336)"><g transform="translate(0 0)" fill="none" stroke="#ff6f08" stroke-linecap="round" stroke-linejoin="round" stroke-width="2" stroke-dasharray="12 4"><rect width="81.167" height="81.167" stroke="none"/><rect x="1" y="1" width="79.167" height="79.167" fill="none"/></g></g><g transform="translate(22.125 22.558)"><g transform="translate(0 0)" fill="none" stroke="#ff6f08" stroke-linecap="round" stroke-linejoin="round" stroke-width="2" stroke-dasharray="12 4"><rect width="71.022" height="71.022" stroke="none"/><rect x="1" y="1" width="69.022" height="69.022" fill="none"/></g></g></g></g></svg>