<svg xmlns="http://www.w3.org/2000/svg" width="79.139" height="40" viewBox="0 0 79.139 40"><g transform="translate(0)"><path d="M44.515,10.222H0V0H44.515V10.221Zm-13.5-9.4a4.1,4.1,0,0,0-4.2,4.272,4.46,4.46,0,0,0,1.136,3.078,4.014,4.014,0,0,0,3.017,1.241,4.2,4.2,0,0,0,2.8-.985A4.222,4.222,0,0,0,35.1,6.147H32.752a1.747,1.747,0,0,1-1.741,1.481,1.855,1.855,0,0,1-1.489-.764,2.893,2.893,0,0,1-.558-1.758c0-1.243.63-2.5,2.037-2.5h.05a1.675,1.675,0,0,1,1.64,1.35h2.262A3.835,3.835,0,0,0,31.011.822Zm-27.2,6.76H6.444L6.97,9.2H9.1L6.259,1.126h-2L1.209,9.2H3.283l.527-1.62ZM37.84,7.537h2.633L41,9.158h2.138L40.3,1.082H38.29L35.238,9.158h2.075l.526-1.62ZM23.65,1.082V9.158h2.119V1.082Zm-7.538-.005V9.153h2.118V6.1h.214l2.047,3.054,2.465-.005L20.5,5.775A2.182,2.182,0,0,0,22,3.6c0-1.673-1.1-2.522-3.255-2.522Zm-6.274,0V9.153h2.131V6.077H14.8V4.385H11.969V2.893h2.946V1.076ZM6,6.167H4.272l.556-1.715c.1-.312.162-.533.23-.789l.054-.2h.059a10.04,10.04,0,0,0,.272.981L6,6.166Zm34.039-.042H38.31l.554-1.717c.1-.3.16-.519.225-.77.019-.072.038-.145.059-.224h.06a9.113,9.113,0,0,0,.272.983l.557,1.727ZM18.82,4.658h-.591V2.727h.581a.911.911,0,0,1,1.017.985A.907.907,0,0,1,18.82,4.658Z" transform="translate(0 29.778)" fill="#686c81"/><path d="M6.815,3.942H2.861v2h3.8V8.217h-3.8v4.127H0V1.51H6.815V3.942Z" transform="translate(0 -1.157)" fill="#686c81"/><path d="M64.939,32.089a5.58,5.58,0,0,1,5.7,5.768,5.7,5.7,0,0,1-5.733,5.768,5.562,5.562,0,0,1-5.752-5.768,5.724,5.724,0,0,1,5.78-5.768Zm-.047,8.978a2.993,2.993,0,0,0,2.861-3.209,2.928,2.928,0,0,0-2.826-3.214,3,3,0,0,0-2.872,3.209,2.973,2.973,0,0,0,2.837,3.209Z" transform="translate(-51.275 -32.084)" fill="#686c81"/><path d="M113.879,40.139V33.585h2.842V40.3c0,1.4.506,2.062,1.384,2.062,1.147,0,1.4-.936,1.4-2.062V33.58h2.826v6.531c0,3.289-1.669,4.651-4.228,4.651-2.458,0-4.237-1.222-4.237-4.623Z" transform="translate(-93.178 -33.227)" fill="#686c81"/><path d="M160.395,37.746c.019.468.066,1.494.066,1.936V44.4h-2.39V33.565h2.4l2.7,4.312a22.846,22.846,0,0,1,1.33,2.43h.047c-.016-.468-.047-1.32-.047-1.751v-5h2.385V44.392H164.5l-2.3-3.668c-1.128-1.8-1.43-2.477-1.751-2.989h-.054Z" transform="translate(-127.031 -33.211)" fill="#686c81"/><path d="M208.325,33.58c3.907,0,5.991,2.46,5.991,5.419s-2.208,5.419-6.019,5.419h-3.8V33.58Zm-.157,8.357c2.285,0,3.256-1.332,3.256-2.938,0-1.732-1.046-2.936-3.256-2.936h-.826v5.878h.826Z" transform="translate(-162.592 -33.227)" fill="#686c81"/><path d="M234.128,3.942h-3.954V5.628h3.813V7.9h-3.813V9.919h4.115v2.432h-6.96V1.51h6.8V3.942Z" transform="translate(-174.113 -1.157)" fill="#686c81"/><path d="M299.721,44.414h-3.3l-2.751-4.1h-.283v4.1H290.54V33.58h3.511c3.24,0,4.368,1.43,4.368,3.385a2.943,2.943,0,0,1-2.018,2.924l3.308,4.525Zm-5.562-8.629h-.78V38.36h.8a1.289,1.289,0,1,0-.016-2.575Z" transform="translate(-228.49 -33.227)" fill="#686c81"/><path d="M335.5,35.617c0-.78-.4-1.273-1.082-1.273a.833.833,0,0,0-.89.859c0,.681.714.983,1.763,1.351,2.107.733,2.952,2.018,2.952,3.621s-1.11,3.432-3.841,3.432a3.6,3.6,0,0,1-3.891-3.844h2.716c0,.936.349,1.568,1.22,1.568a.969.969,0,0,0,1.046-1c0-.7-.494-1.082-1.732-1.512-2.257-.777-2.954-2.163-2.954-3.558,0-2.034,1.669-3.191,3.64-3.191a3.33,3.33,0,0,1,3.64,3.54H335.5Z" transform="translate(-259.104 -32.07)" fill="#686c81"/><path d="M6.815,62.77H2.861v2h3.8v2.273h-3.8v4.129H0V60.34H6.815v2.43Z" transform="translate(0 -46.215)" fill="#686c81"/><path d="M58.662,92.4h2.687l3.813,10.834H62.3l-.7-2.175H58.081l-.7,2.175H54.57Zm0,6.768h2.329l-.744-2.32a11.846,11.846,0,0,1-.365-1.32H59.8c-.129.468-.208.81-.384,1.332l-.744,2.308Z" transform="translate(-47.76 -78.277)" fill="#686c81"/><path d="M111.872,95.142h-3.043a2.245,2.245,0,0,0-2.273-1.807c-1.779,0-2.732,1.524-2.732,3.35,0,1.779,1.082,3.383,2.748,3.383a2.351,2.351,0,0,0,2.341-1.983h3.146a5.659,5.659,0,1,1-5.478-7.145,5.155,5.155,0,0,1,5.286,4.214Z" transform="translate(-83.275 -77.159)" fill="#686c81"/><path d="M126.7,62.77H124.27V60.34h7.723v2.43h-2.43v8.4H126.7v-8.4Z" transform="translate(-95.179 -46.215)" fill="#686c81"/><path d="M190.089,90.909a5.58,5.58,0,0,1,5.7,5.768,5.7,5.7,0,0,1-5.733,5.768,5.562,5.562,0,0,1-5.752-5.768,5.726,5.726,0,0,1,5.78-5.768Zm-.047,8.973a2.993,2.993,0,0,0,2.861-3.209,2.924,2.924,0,0,0-2.826-3.209,3.232,3.232,0,0,0-.035,6.419Z" transform="translate(-147.128 -77.135)" fill="#686c81"/><path d="M248.969,103.234h-3.3l-2.751-4.1h-.286v4.1H239.79V92.4h3.525c3.238,0,4.366,1.43,4.366,3.385a2.943,2.943,0,0,1-2.018,2.924Zm-5.557-8.624h-.78v2.575h.8a1.295,1.295,0,1,0-.016-2.587Z" transform="translate(-189.621 -78.277)" fill="#686c81"/><path d="M279.076,98.914l-3.586-6.576h3.064l1.43,2.779a8.339,8.339,0,0,1,.569,1.4h.03a10.688,10.688,0,0,1,.569-1.4l1.332-2.8h2.989l-3.558,6.555v4.275h-2.844V98.914Z" transform="translate(-216.963 -78.216)" fill="#686c81"/><g transform="translate(68.504 20.116)"><path d="M320.535,119a1.43,1.43,0,1,1-1.43,1.43,1.43,1.43,0,0,1,1.43-1.43m0-.995a2.417,2.417,0,1,0,1.717.707,2.425,2.425,0,0,0-1.717-.707Z" transform="translate(-318.11 -118)" fill="#686c81"/></g></g></svg>