<svg xmlns="http://www.w3.org/2000/svg" xmlns:xlink="http://www.w3.org/1999/xlink" width="169.201" height="35" viewBox="0 0 169.201 35"><defs><clipPath id="a"><rect width="169.201" height="35" fill="none"/></clipPath></defs><g clip-path="url(#a)"><path d="M102.854,11.687l-.2-1.856h-2.378V21.01h2.765V13.669a4.9,4.9,0,0,1,3.8-1.528V9.592a5.322,5.322,0,0,0-3.987,2.094Zm-7.893,6.656a2.981,2.981,0,0,1-1.923.865,1.362,1.362,0,0,1-1.491-1.55c0-1.491,1.058-1.878,3.391-2.042v2.728ZM94.1,9.592a11.306,11.306,0,0,0-4.241.991l.477,1.625a11.59,11.59,0,0,1,2.817-.47c1.6,0,1.811.589,1.811,1.878v.589c-2.474.142-6.045.067-6.045,3.57,0,2.378,1.327,3.481,3.026,3.481a4.472,4.472,0,0,0,3.16-1.491l.2,1.267h2.333V14.012c0-2.46-.075-4.42-3.525-4.42Zm-9.756,8.2A2.922,2.922,0,0,1,82.1,18.916c-1.237,0-1.99-1.006-1.99-3.451s.82-3.5,2.1-3.5a3.391,3.391,0,0,1,2.094.827v5Zm0-6.812a4.472,4.472,0,0,0-3.071-1.371c-2.564,0-4.025,2.191-4.025,5.963S78.907,21.3,81.4,21.3a4.129,4.129,0,0,0,3.108-1.58l.194,1.342h2.4V4.472L84.34,4.9v6.059Zm29.954,6.812a2.847,2.847,0,0,1-2.191,1.125c-1.237,0-1.99-1.006-1.99-3.451s.82-3.5,2.1-3.5a3.324,3.324,0,0,1,2.079.827v5Zm0-6.812a4.472,4.472,0,0,0-3.063-1.371c-2.564,0-4.025,2.191-4.025,5.963s1.67,5.731,4.166,5.731a4.166,4.166,0,0,0,3.108-1.58l.186,1.342h2.4V4.472l-2.773.425v6.059ZM164.6,15.19l4.278-5.329h-2.9l-3.92,4.979V4.472l-2.773.425V21.025h2.773V15.763l3.958,5.262h3.168l-4.576-5.851Zm-34.039,3.443a6.194,6.194,0,0,1-2.638.328h-1.051V14.012h1.491a4.54,4.54,0,0,1,2.318.335A2.1,2.1,0,0,1,131.7,16.4a2.236,2.236,0,0,1-1.14,2.236Zm-3.727-11.18h1.491a4.24,4.24,0,0,1,2.385.38,2.035,2.035,0,0,1,.8,1.789c0,1.789-.82,2.445-3.481,2.445h-1.163V7.408Zm4.338,5.508a3.438,3.438,0,0,0,3.175-3.727c0-3.853-3.25-3.905-6.037-3.905h-4.241V20.981H127.8c2.676,0,3.481-.1,4.4-.47a3.786,3.786,0,0,0,2.474-3.779c0-2.378-1.26-3.57-3.525-3.809ZM72.02,9.592a6.372,6.372,0,0,0-3.727,1.722l-.2-1.491H65.685V21h2.773V12.961a5.143,5.143,0,0,1,2.512-1.036c1.237,0,1.371.894,1.371,2.3v6.79h2.78V13.736c0-1.811-.1-4.144-3.1-4.144Zm70.253,8.75a2.981,2.981,0,0,1-1.93.865,1.362,1.362,0,0,1-1.491-1.55c0-1.491,1.051-1.878,3.391-2.042v2.728Zm-.872-8.75a11.247,11.247,0,0,0-4.263.991l.484,1.625a11.284,11.284,0,0,1,2.81-.47c1.6,0,1.811.589,1.811,1.878v.589c-2.474.142-6.044.067-6.044,3.57,0,2.378,1.327,3.481,3.019,3.481a4.472,4.472,0,0,0,3.16-1.491l.2,1.267H144.9V14.012c0-2.46-.067-4.42-3.525-4.42Zm12.32,0a6.345,6.345,0,0,0-3.727,1.714l-.2-1.491H147.4V21h2.78V12.968a5.172,5.172,0,0,1,2.489-1.043c1.23,0,1.364.894,1.364,2.3V21h2.773V13.744c0-1.811-.089-4.136-3.086-4.136ZM41.641,11.925c-2.035-.656-3.294-1.029-3.294-2.415,0-1.491,1.23-2.147,2.624-2.147A10.569,10.569,0,0,1,44.436,8l.641-1.975A10.859,10.859,0,0,0,40.8,5.113c-3.279,0-5.292,1.714-5.292,4.606,0,4.472,4.643,4.136,6.454,5.545a1.714,1.714,0,0,1,.745,1.453c0,1.319-1.118,2.236-2.884,2.236a7.371,7.371,0,0,1-3.5-.894l-.961,1.93a8.407,8.407,0,0,0,4.628,1.193c3.57,0,5.582-1.826,5.582-4.912,0-2.676-1.625-3.615-3.891-4.368ZM60.565,18.32a2.981,2.981,0,0,1-1.93.865,1.362,1.362,0,0,1-1.491-1.55c0-1.491,1.051-1.878,3.391-2.042V18.32ZM59.7,9.592a11.351,11.351,0,0,0-4.241.991l.484,1.625a11.359,11.359,0,0,1,2.81-.47c1.6,0,1.811.589,1.811,1.878v.589c-2.474.142-6.045.067-6.045,3.57,0,2.378,1.327,3.481,3.026,3.481a4.539,4.539,0,0,0,3.16-1.491l.2,1.267h2.31V14.012c0-2.46-.067-4.42-3.518-4.42Zm-8.2,9.6c-1.148,0-1.215-.745-1.215-1.677V11.739h2.981l.276-1.908H50.264V6.29l-2.355.417-.388,3.123-1.826.358v1.55h1.826v5.4c0,1.528.045,2.728.842,3.451a3.175,3.175,0,0,0,2.236.678,7.207,7.207,0,0,0,3.309-.812l-.574-1.625a5.7,5.7,0,0,1-1.8.358ZM20.2,28.605l-4.107-8.3a3.794,3.794,0,0,0-.842-1.088c1.282.417,2.817,1.431,5.284,1.431a8.1,8.1,0,0,0,5.217-2.2,14.735,14.735,0,0,1-5.486,10.151ZM19.662,6.753c-3.227-.179-5-1.886-7.7-2.027a8.2,8.2,0,0,0-2.847.35L6.708,3.443h.067a53.1,53.1,0,0,1,7.535-.566A55.4,55.4,0,0,1,25.08,3.995L25.2,5.307A9.592,9.592,0,0,1,19.662,6.753Zm-6.82,24.6-.708-.328c-5.023-2.482-8.646-6.641-9.257-12.447a56.285,56.285,0,0,1,.1-7.453l9.868,20.243ZM26.466,1.356A58.819,58.819,0,0,0,14.28,0,58.642,58.642,0,0,0,2.109,1.356,1.781,1.781,0,0,0,.746,3.041C.462,6.462-.268,15.331.1,18.879.984,27.293,7.1,32.57,14.28,35.03a26.951,26.951,0,0,0,2.728-1.081L4.77,9.4l-1.2-.917a.745.745,0,0,1-.306-.6V4.069a.365.365,0,0,1,.589-.343L6.835,6.015a.745.745,0,0,1,.291.619V8.124A8.623,8.623,0,0,1,11.9,7.058c2.7.142,4.554,1.99,7.781,2.169a9.9,9.9,0,0,0,5.731-1.55c.142,1.945.276,4.1.343,6.037l.045,1.923a10.33,10.33,0,0,1-5.217,2.31c-2.236,0-3.809-1.491-5.963-1.491a4.934,4.934,0,0,0-2.825.879L19.378,32.69A17.959,17.959,0,0,0,28.5,18.879c.38-3.548-.358-12.417-.663-15.838A1.789,1.789,0,0,0,26.5,1.356Z" transform="translate(0 0)" fill="#686c81" fill-rule="evenodd"/></g></svg>