<svg xmlns="http://www.w3.org/2000/svg" width="149.531" height="30" viewBox="0 0 149.531 30"><g transform="translate(0)"><path d="M29.985,30H0V0H29.985V30ZM9.573,7.406l-.267,0a1.842,1.842,0,0,0-.351.056h0l-.046.01c.169.379.368.75.561,1.109.11.205.224.417.331.628.95,1.795,1.922,3.615,2.862,5.376l1.145,2.146a.9.9,0,0,1,.091.5c0,.035,0,.071,0,.106,0,.937,0,1.89,0,2.811v.005c0,.959,0,1.95,0,2.931.281,0,.588,0,.965,0h1.134c0-.849,0-1.7,0-2.525v-.007c0-1.1,0-2.238,0-3.356a.7.7,0,0,1,.072-.343c.573-1.084,1.159-2.185,1.726-3.249l0-.006c.868-1.628,1.765-3.312,2.634-4.977.059-.123.125-.246.188-.365h0a4.871,4.871,0,0,0,.364-.8A6.6,6.6,0,0,0,19.905,7.4c-.128,0-.258,0-.384,0h0c-.125,0-.255,0-.386,0s-.233,0-.334,0c-.456.9-.912,1.81-1.353,2.694-.618,1.24-1.257,2.522-1.906,3.772-.048.093-.1.188-.143.279v0h0c-.125.247-.255.5-.4.742-.167-.279-.313-.575-.453-.862h0c-.062-.126-.126-.257-.191-.384C13.737,12.4,13.122,11.13,12.528,9.9l0-.005c-.363-.749-.738-1.524-1.112-2.29l-.01-.02h0c-.031-.062-.066-.133-.142-.133l-.022,0c-.177-.006-.355-.013-.527-.019C10.338,7.422,9.952,7.406,9.573,7.406Z" transform="translate(0)" fill="#686c81"/><g transform="translate(39.292 5.941)"><path d="M48.345,16.756a4.217,4.217,0,0,1-1.155-.161,4.031,4.031,0,0,1-1.063-.475,5.3,5.3,0,0,1-.629-.488h0c-.094-.081-.192-.165-.291-.244-.066.2-.123.416-.179.619h0c-.049.18-.1.366-.157.547l-.341.006h0c-.155,0-.316.007-.473.007a5.271,5.271,0,0,1-.872-.06,11.635,11.635,0,0,0,.249-2.529q0-.114.006-.227c.03-2.373.014-4.787,0-7.121V6.622c-.006-.847-.012-1.724-.015-2.586-.025-.431-.028-.87-.032-1.295A14.082,14.082,0,0,0,43.217.262L43.482.2h0A4.829,4.829,0,0,1,44.655,0h.029c.28.013.319.35.343.552.067,1,.1,2.014.1,3.016.03.641.037,1.294.044,1.925,0,.311.007.633.013.95l.21-.163a6.334,6.334,0,0,1,1.5-.957,3.966,3.966,0,0,1,1.584-.332,3.762,3.762,0,0,1,.859.1,3.459,3.459,0,0,1,.812.3,3.837,3.837,0,0,1,.745.491,4.367,4.367,0,0,1,.618.639,4.991,4.991,0,0,1,.488.748,5.443,5.443,0,0,1,.352.819A7.753,7.753,0,0,1,52.7,9.726a10.738,10.738,0,0,1,.035,1.677,8.531,8.531,0,0,1-.357,1.93,6.137,6.137,0,0,1-.864,1.756,4.728,4.728,0,0,1-.791.846,3.365,3.365,0,0,1-1,.579A4.007,4.007,0,0,1,48.345,16.756ZM48.022,6.593c-.189,0-.391.009-.636.03a2.557,2.557,0,0,0-.641.18,3.282,3.282,0,0,0-.578.321,5.718,5.718,0,0,0-.985.892,3.124,3.124,0,0,0-.014.45h0c0,.063,0,.128,0,.192,0,1.149,0,2.313,0,3.439v.026c0,.555,0,1.129,0,1.694-.025.15.08.248.182.342h0c.022.02.043.039.062.059a3.68,3.68,0,0,0,.551.435,3.8,3.8,0,0,0,.624.325,3.747,3.747,0,0,0,.673.2,3.544,3.544,0,0,0,.7.07,3.264,3.264,0,0,0,.807-.1,2.107,2.107,0,0,0,.781-.386,2.332,2.332,0,0,0,.574-.657,4.313,4.313,0,0,0,.452-1.145,8.963,8.963,0,0,0,.205-1.219c.008-.132.018-.266.028-.4a8.09,8.09,0,0,0,.019-1.486,4.474,4.474,0,0,0-.546-2.109,2.462,2.462,0,0,0-.594-.684,1.993,1.993,0,0,0-.814-.39A3.9,3.9,0,0,0,48.022,6.593ZM6.487,16.715c-.418,0-.863-.023-1.361-.071a6.058,6.058,0,0,1-2.686-1.37A6.853,6.853,0,0,1,.516,12.379a7.7,7.7,0,0,1-.3-1.139,11.784,11.784,0,0,1-.158-1.17C.049,9.94.041,9.808.033,9.681a7.867,7.867,0,0,1,0-1.359A9.933,9.933,0,0,1,.19,6.673,7.493,7.493,0,0,1,.667,5.089,8.861,8.861,0,0,1,1.672,3.266a6.149,6.149,0,0,1,1.473-1.46,6.7,6.7,0,0,1,1.379-.719,4.534,4.534,0,0,1,1.52-.3l.288,0a9.28,9.28,0,0,1,1.458.1,5.235,5.235,0,0,1,1.4.41,4.444,4.444,0,0,1,1.137.671,7.494,7.494,0,0,1-.711.97l-.156.192L9.3,3.039l0,0A5.532,5.532,0,0,0,8.251,2.5a5.627,5.627,0,0,0-.868-.231,5.044,5.044,0,0,0-.9-.082,4.088,4.088,0,0,0-1.535.285,3.726,3.726,0,0,0-1.184.736,4.262,4.262,0,0,0-.863,1.1,6.612,6.612,0,0,0-.7,1.832A11.33,11.33,0,0,0,2.04,8.052l0,.1,0,.038a23.939,23.939,0,0,0-.016,2.41,7.121,7.121,0,0,0,.436,1.738,5.088,5.088,0,0,0,.927,1.526,3.811,3.811,0,0,0,.586.544,4.178,4.178,0,0,0,.683.416,4.5,4.5,0,0,0,.749.284,4.635,4.635,0,0,0,.786.148c.227.013.41.018.577.018a4.3,4.3,0,0,0,1.1-.122,6.307,6.307,0,0,0,1.381-.54h0c.157-.076.319-.155.481-.227a8.726,8.726,0,0,1,.96,1.164,12.976,12.976,0,0,1-1.414.686A7.306,7.306,0,0,1,6.487,16.715Zm50.3-13.676a1.436,1.436,0,0,1-.78-.234,1.283,1.283,0,0,1-.3-.274,1.122,1.122,0,0,1-.193-.362,1.24,1.24,0,0,1-.072-.51,1.409,1.409,0,0,1,.127-.5,1.441,1.441,0,0,1,.294-.423,1.291,1.291,0,0,1,.428-.285,1.581,1.581,0,0,1,1.095.056,1.743,1.743,0,0,1,.688.848A1.253,1.253,0,0,1,57.9,2.408a1.366,1.366,0,0,1-.965.623A1.307,1.307,0,0,1,56.792,3.038Z" transform="translate(0)" fill="#686c81"/><path d="M68.539,14.895a.819.819,0,0,1-.423-.2l0,0a2.639,2.639,0,0,1-.56-.578,4.888,4.888,0,0,1-.414-.695,3.742,3.742,0,0,0-.566.407h0a4.256,4.256,0,0,1-.492.365,4.309,4.309,0,0,1-1.035.479,3.824,3.824,0,0,1-1.126.174h-.177a4.9,4.9,0,0,1-.987-.1,3.872,3.872,0,0,1-.937-.318A2.849,2.849,0,0,1,60.64,13.23a3.376,3.376,0,0,1-.387-1.651,3.4,3.4,0,0,1,.378-1.566,3.52,3.52,0,0,1,1.042-1.23,4.713,4.713,0,0,1,.835-.494,5.988,5.988,0,0,1,.909-.331,9.786,9.786,0,0,1,1.917-.309c.4-.035.8-.048,1.2-.06h0c.152,0,.361-.011.559-.02a9.276,9.276,0,0,0-.1-1.712,2,2,0,0,0-.23-.7,1.314,1.314,0,0,0-.51-.518,2.081,2.081,0,0,0-.547-.193,2.862,2.862,0,0,0-.579-.056,4.283,4.283,0,0,0-.608.047,5.906,5.906,0,0,0-1.58.43,7.417,7.417,0,0,0-1.428.807l-.158-.223v0h0a8.786,8.786,0,0,1-.53-.8.213.213,0,0,1-.021-.172.428.428,0,0,1,.232-.224,11.962,11.962,0,0,1,1.864-.857,7.047,7.047,0,0,1,.988-.267,5.492,5.492,0,0,1,1.021-.1h.512a6.6,6.6,0,0,1,1,.057,2.772,2.772,0,0,1,.867.324A2.964,2.964,0,0,1,68,3.991a2.791,2.791,0,0,1,.5.776,2.459,2.459,0,0,1,.2.9c.039,1.117.026,2.251.015,3.348h0v.006c-.008.746-.016,1.518-.008,2.282,0,.1,0,.2.005.287v.016h0a5.943,5.943,0,0,0,.125,1.368,1.268,1.268,0,0,0,.525.668c.051.041.109.088.164.136-.073.1-.142.2-.209.3h0a3.508,3.508,0,0,1-.6.737A.272.272,0,0,1,68.539,14.895ZM65.891,8.739c-.077,0-.148,0-.217.009l-.212.019h-.006l-.026,0a7.777,7.777,0,0,0-1.411.213,2.911,2.911,0,0,0-.905.436,2.43,2.43,0,0,0-.678.737,2.008,2.008,0,0,0-.209.964v.023c0,.028,0,.063,0,.1,0,.067,0,.135-.007.2v0h0a2.342,2.342,0,0,0,.106,1.013,1.645,1.645,0,0,0,.816.924,2.666,2.666,0,0,0,1.045.187h0c.131,0,.266-.006.414-.019a2.5,2.5,0,0,0,.831-.265,4.321,4.321,0,0,0,.732-.484,2.766,2.766,0,0,0,.519-.545,1.346,1.346,0,0,0,.254-.7c.057-.7.061-1.419.065-2.111h0V9.428h0c0-.207,0-.421,0-.632h-.088c-.171,0-.344-.015-.511-.029h0C66.232,8.753,66.06,8.739,65.891,8.739Zm9.47,6.143a3.756,3.756,0,0,1-1.1-.147,2.108,2.108,0,0,1-.936-.563,1.311,1.311,0,0,1-.37-.664,4.341,4.341,0,0,1-.1-.774h0c-.006-.089-.012-.189-.021-.285-.042-.946-.041-1.908-.04-2.837h0V9.592c0-.335,0-.682,0-1.027,0-.485,0-.965,0-1.5h0V6.972h0V6.948c0-.771,0-1.568,0-2.354-.182,0-.386,0-.641,0H71.3c-.017-.388-.018-.813,0-1.3h.83c.174,0,.4,0,.634-.008.022-.285.039-.57.056-.846h0a19.935,19.935,0,0,1,.189-2.01A13.455,13.455,0,0,1,74.767,0c-.1,1.221-.169,2.247-.206,3.285.349.008.7.014,1.014.018h.015c.58.009,1.179.018,1.77.042-.161.418-.334.837-.514,1.246h-1.5c-.348,0-.613,0-.859,0,0,.55,0,1.109,0,1.65v.025h0v.06c0,.4,0,.861,0,1.3,0,.394.007.791.018,1.175v0h0v.006h0c.011.4.023.817.017,1.226.007.286.007.576.007.856h0a16.61,16.61,0,0,0,.07,1.874.728.728,0,0,0,.235.475,1.136,1.136,0,0,0,.472.265,3.176,3.176,0,0,0,.708.077,4.312,4.312,0,0,0,1.019-.131,2.235,2.235,0,0,1,.2,1.051,4.367,4.367,0,0,1-1.658.368h0C75.508,14.88,75.433,14.881,75.36,14.881ZM4.818,14.853A5.089,5.089,0,0,1,3.5,14.679a4.254,4.254,0,0,1-1.442-.7,4.657,4.657,0,0,1-.6-.531,4.731,4.731,0,0,1-.5-.627,4.435,4.435,0,0,1-.421-.755,5.416,5.416,0,0,1-.28-.816A7.907,7.907,0,0,1,.013,9.542v0h0C0,9.025-.013,8.443.025,7.871A6.217,6.217,0,0,1,.333,6.235a5.384,5.384,0,0,1,.321-.763,5.09,5.09,0,0,1,.437-.7,4.427,4.427,0,0,1,1.2-1.125,4.208,4.208,0,0,1,1.4-.59,4.959,4.959,0,0,1,.639-.034c.1,0,.208,0,.309,0h.01l.217,0,.266.006h0a3.749,3.749,0,0,1,1.12.131,4.722,4.722,0,0,1,1.419.783,4.585,4.585,0,0,1,.586.563,4.371,4.371,0,0,1,.475.66,6.8,6.8,0,0,1,.578,1.282A5.136,5.136,0,0,1,9.57,7.831c.03.647.054,1.28.023,1.911a7.2,7.2,0,0,1-.318,1.878A4.845,4.845,0,0,1,8.413,13.2a4.564,4.564,0,0,1-.639.638,4.205,4.205,0,0,1-.756.494A4.807,4.807,0,0,1,4.818,14.853ZM4.742,4.375a3.408,3.408,0,0,0-.782.092,2.692,2.692,0,0,0-.853.363,2.156,2.156,0,0,0-.651.654A3.538,3.538,0,0,0,2,6.715a10.3,10.3,0,0,0-.14,1.314,10.652,10.652,0,0,0,.052,1.938,6.37,6.37,0,0,0,.62,2.27,1.986,1.986,0,0,0,.383.482,2.343,2.343,0,0,0,.5.352A3,3,0,0,0,4.6,13.4c.074,0,.149.007.223.007a3.142,3.142,0,0,0,1.049-.175,2.286,2.286,0,0,0,.891-.564,2.982,2.982,0,0,0,.528-.827,3.636,3.636,0,0,0,.262-.948,15.326,15.326,0,0,0,.082-2.379h0V8.432a7.063,7.063,0,0,0-.442-2.526A2.44,2.44,0,0,0,6.15,4.736a2.566,2.566,0,0,0-.679-.274A3.017,3.017,0,0,0,4.742,4.375ZM84.029,14.85a5.048,5.048,0,0,1-1.428-.2,4.193,4.193,0,0,1-2.429-1.837,6.007,6.007,0,0,1-.684-1.52,6.541,6.541,0,0,1-.233-1.539h0l0-.024-.007-.092V9.63h0a12.738,12.738,0,0,1,.154-2.8,6.221,6.221,0,0,1,.585-1.509,5,5,0,0,1,.99-1.276,3.845,3.845,0,0,1,2.136-.994,6.347,6.347,0,0,1,2.1.058,4.391,4.391,0,0,1,2.549,1.718,5.512,5.512,0,0,1,.612,1.111,6.134,6.134,0,0,1,.357,1.218,13.231,13.231,0,0,1,.135,2.411,6.718,6.718,0,0,1-.328,1.936,5.867,5.867,0,0,1-.9,1.739,3.827,3.827,0,0,1-1.194,1.008,4.657,4.657,0,0,1-.72.32,5.069,5.069,0,0,1-.761.2A5.369,5.369,0,0,1,84.029,14.85Zm-.784-10.4h0a2,2,0,0,0-1.113.512,2.437,2.437,0,0,0-.407.471,2.5,2.5,0,0,0-.277.556,5.856,5.856,0,0,0-.308,2.2h0c0,.121,0,.246-.006.369s.006.226.008.337v0A13.4,13.4,0,0,0,81.3,11a4.343,4.343,0,0,0,.224.8,2.439,2.439,0,0,0,.422.71,2.234,2.234,0,0,0,.627.515,2.757,2.757,0,0,0,.762.287,3.4,3.4,0,0,0,.741.082,3,3,0,0,0,1.507-.388,1.966,1.966,0,0,0,.575-.514,2.922,2.922,0,0,0,.381-.675,5.306,5.306,0,0,0,.29-1.612v-.015c0-.051.008-.1.012-.155a20.282,20.282,0,0,0,0-2.141,9.866,9.866,0,0,0-.14-1.123,3.683,3.683,0,0,0-.368-1.064,3.079,3.079,0,0,0-1.32-1.156A3.147,3.147,0,0,0,83.994,4.4a5.593,5.593,0,0,0-.748.055ZM56.422,14.6c-.291,0-.588,0-.909-.011,0-.994-.011-2.005-.021-2.983V11.57h0V11.54c-.01-.906-.019-1.844-.021-2.775-.008-.332-.008-.667-.008-.99h0v0h0a18.754,18.754,0,0,0-.091-2.243,1.425,1.425,0,0,0-.46-.668,1.351,1.351,0,0,0-.353-.208,1.163,1.163,0,0,0-.4-.083c-.145-.006-.267-.01-.392-.01a2.329,2.329,0,0,0-.83.122,7.978,7.978,0,0,0-2.328,1.416c-.012,1.673-.01,3.371-.008,5.012v.08c0,1.109,0,2.257,0,3.4-.289.006-.543.009-.778.009-.284,0-.545,0-.8-.012,0-.862-.013-1.737-.025-2.583v-.032c-.01-.715-.021-1.454-.024-2.2,0-.358-.005-.719-.007-1.068V8.693h0v0h0c-.007-1.269-.014-2.582-.081-3.873a4.71,4.71,0,0,0-.176-.973h0l0-.006h0c-.03-.116-.063-.248-.091-.376L48.8,3.4l.006,0h0a5.086,5.086,0,0,1,1.44-.313A6.259,6.259,0,0,1,50.639,4.7a7.247,7.247,0,0,0,.624-.45h0A6.215,6.215,0,0,1,52,3.729a5.594,5.594,0,0,1,1.073-.5,3.671,3.671,0,0,1,1.16-.2,2.674,2.674,0,0,1,.939.165,4,4,0,0,1,.9.441,2.6,2.6,0,0,1,.714.7A2.566,2.566,0,0,1,57.2,5.754c.067,1.242.071,2.5.076,3.725h0v.009c0,.482,0,1.028.01,1.553,0,.643.006,1.3.013,1.926v.027c.006.519.011,1.055.013,1.589C57.028,14.592,56.728,14.6,56.422,14.6Zm-42.589,0c-.268,0-.534,0-.788-.014-.021-1.205-.027-2.431-.033-3.617v-.02h0C13,9.373,13,7.749,12.953,6.152c0-.088,0-.181-.006-.263V5.838h0a14.4,14.4,0,0,0-.093-1.595c-.024-.135-.059-.269-.092-.4h0v0c-.036-.141-.074-.287-.1-.435A12.827,12.827,0,0,1,14.249,3a4.917,4.917,0,0,1,.4,1.585,3.618,3.618,0,0,0,.6-.421h0c.126-.1.256-.208.395-.3a4.894,4.894,0,0,1,1.2-.635,3.979,3.979,0,0,1,1.336-.239c.051,0,.1,0,.154,0a1.646,1.646,0,0,1,.625.183,3.688,3.688,0,0,1,.943.6,3.36,3.36,0,0,1,.568.8l0,.006,0,.005.088.152a3.718,3.718,0,0,0,.767-.508h0c.128-.1.26-.2.4-.3a6.145,6.145,0,0,1,1.086-.607,4.114,4.114,0,0,1,1.2-.316,2.6,2.6,0,0,1,.3-.017,2.659,2.659,0,0,1,1.82.715l.01.01.008.008h0l0,0,.013.012,0,0h0a2.466,2.466,0,0,1,.619.777A3.389,3.389,0,0,1,27,5.536c.077,1.05.079,2.12.08,3.154v0h0c0,.748,0,1.521.032,2.282,0,.642,0,1.294,0,1.869v.026c0,.44,0,1.106,0,1.719-.362.005-.64.007-.9.007-.328,0-.623,0-.9-.012,0-1.238,0-2.521,0-3.654v-.2q0-.78,0-1.56c0-.23,0-.459,0-.681V8.433h0c0-.9,0-1.832-.072-2.747a1.369,1.369,0,0,0-.556-.929,1.123,1.123,0,0,0-.393-.159,2.051,2.051,0,0,0-.426-.039c-.127,0-.251.007-.372.014h-.005a2.44,2.44,0,0,0-.988.336,6.586,6.586,0,0,0-.857.612c-.1.085-.206.171-.291.24h0c-.157.128-.319.26-.474.4a.224.224,0,0,0-.059.19c0,.022,0,.046,0,.067,0,.518,0,1.043,0,1.559V8.36h0v.064c0,2.02,0,4.109,0,6.163-.331.005-.625.008-.9.008-.321,0-.615,0-.9-.011v-.3c0-1.662,0-3.938,0-6.056,0-.126,0-.256,0-.371V7.832h0c0-.375,0-.762-.03-1.143-.007-.116-.01-.236-.013-.352v0a2.764,2.764,0,0,0-.211-1.21,1.2,1.2,0,0,0-.525-.413,1.727,1.727,0,0,0-.667-.127,2,2,0,0,0-.479.058,4.323,4.323,0,0,0-1.269.546,7.877,7.877,0,0,0-1.1.842c-.1.065-.1.187-.1.294v.03c0,1.387,0,2.764,0,4.1v.079c0,1.323,0,2.691,0,4.057C14.352,14.592,14.086,14.6,13.833,14.6Zm30.364,0c-.287,0-.585,0-.885-.01-.012-2.024-.01-4.063-.008-6.035h0V8.527c0-1.143,0-2.439,0-3.712,0-.151,0-.3,0-.449V4.341h0c0-.339,0-.689.014-1.035.554-.081,1.118-.178,1.724-.3.052,1.127.054,2.275.056,3.385v.02h0v.006h0c0,.438,0,.891.006,1.338,0,1.577,0,3.154,0,4.678v.913c0,.41,0,.825,0,1.234C44.8,14.593,44.5,14.6,44.2,14.6Zm48.887,0c-.3,0-.6,0-.9-.01-.006-1.148,0-2.315,0-3.444v-.067c0-.751,0-1.548,0-2.309,0-.329,0-.661,0-.982V7.76h0v0c0-.965,0-1.964-.054-2.945a4.73,4.73,0,0,0-.1-.76h0a5.771,5.771,0,0,1-.1-.614l.364-.1.021-.006h0c.4-.115.812-.234,1.226-.328a3,3,0,0,1,.284.871,7.248,7.248,0,0,1,.091.915,5.18,5.18,0,0,0,.581-.534h0l0,0,0,0c.049-.05.109-.111.168-.17a3.933,3.933,0,0,1,1.148-.79,3.513,3.513,0,0,1,.661-.221,3.151,3.151,0,0,1,.692-.078,2.929,2.929,0,0,1,.516.045v.139c-.132.29-.238.593-.341.887h0c-.086.247-.176.5-.28.747-.023.071-.1.075-.169.078h0a.411.411,0,0,0-.074.008l-.115,0h-.009a2.716,2.716,0,0,0-1.3.24A3.921,3.921,0,0,0,94.28,6.1a1.694,1.694,0,0,0-.254,1.075h0v0h0v0c0,.08,0,.163-.006.243-.031.707-.042,1.342-.036,1.943,0,.823,0,1.712,0,2.425V12c0,.844,0,1.717,0,2.591C93.684,14.593,93.381,14.6,93.084,14.6Z" transform="translate(12.557 1.968)" fill="#686c81"/></g></g></svg>