<svg xmlns="http://www.w3.org/2000/svg" width="160" height="24.645" viewBox="0 0 160 24.645">
    <defs>
        <style>
            .cls-1{fill:none}.cls-2{clip-path:url(#clip-path)}.cls-3{fill:#5b63fe}.cls-4{fill:#f4e55e}.cls-5{fill:#251f68}.cls-6{fill:#ff6f08}
        </style>
        <clipPath id="clip-path">
            <path id="Path_1329" d="M57.747 99.019h1.073a2.474 2.474 0 0 0 2.609-1.944 8.539 8.539 0 0 1 1.616-3.211 8.131 8.131 0 0 1 11.949-.631 7.732 7.732 0 0 1 2.127 3.67 2.461 2.461 0 0 0 1.991 2.06 23.046 23.046 0 0 0 3.439.045c.333 0 .3-.274.295-.494a12.521 12.521 0 0 0-1.083-4.858 13.314 13.314 0 0 0-10.026-8.01 13.5 13.5 0 0 0-14.894 8.04 13.015 13.015 0 0 0-1.056 4.773c-.008.433.14.59.567.567.469-.026.933-.007 1.393-.007z" class="cls-1" data-name="Path 1329" transform="translate(-55.788 -85.404)"/>
        </clipPath>
    </defs>
    <g id="Schoolable_logo" transform="translate(-55.788)">
        <g id="Layer_1" data-name="Layer 1" transform="translate(55.788)">
            <g id="Group_851" data-name="Group 851">
                <g id="Group_849" data-name="Group 849">
                    <g id="Group_848" class="cls-2" data-name="Group 848" transform="translate(0 10.997)">
                        <g id="Group_847" data-name="Group 847" transform="translate(-7.183 -5.667)">
                            <path id="Rectangle_323" d="M0 0h25.887v23.891H0z" class="cls-3" data-name="Rectangle 323" transform="translate(9.66 1.335)"/>
                            <path id="Path_1327" d="M173.367 46.69l-10.338-5.3-12.819 20.275 12.258 6.285z" class="cls-4" data-name="Path 1327" transform="translate(-130.868 -41.39)"/>
                            <path id="Path_1328" d="M9.33 65.45L0 72.374l14.236 19.184L25.3 83.349z" class="cls-5" data-name="Path 1328" transform="translate(0 -62.352)"/>
                        </g>
                    </g>
                    <path id="Path_1330" d="M134.474 4.564a4.507 4.507 0 1 1-1.306-3.231 4.547 4.547 0 0 1 1.306 3.231z" class="cls-6" data-name="Path 1330" transform="translate(-116.419)"/>
                </g>
                <g id="Group_850" data-name="Group 850" transform="translate(31.531 2.575)">
                    <path id="Path_1331" d="M302.188 79.86a3.694 3.694 0 0 1-1.528-2.869h3.005a1.535 1.535 0 0 0 .654 1.214 2.573 2.573 0 0 0 1.534.427 2.5 2.5 0 0 0 1.449-.361 1.192 1.192 0 0 0 .515-1.04 1.041 1.041 0 0 0-.408-.914 2.8 2.8 0 0 0-1.06-.42l-2.06-.494a4.622 4.622 0 0 1-2.529-1.3 3.2 3.2 0 0 1-.807-2.2 3.438 3.438 0 0 1 1.355-2.842A5.5 5.5 0 0 1 305.825 68a5.43 5.43 0 0 1 3.5 1.067 3.581 3.581 0 0 1 1.387 2.816h-3a1.416 1.416 0 0 0-.534-1.159 2.176 2.176 0 0 0-1.4-.426 2.085 2.085 0 0 0-1.254.34 1.124 1.124 0 0 0-.465.967.975.975 0 0 0 .367.874 3.43 3.43 0 0 0 1.074.42l2.349.534a4.251 4.251 0 0 1 2.355 1.313 3.38 3.38 0 0 1 .773 2.222 3.472 3.472 0 0 1-1.38 2.882 5.859 5.859 0 0 1-3.7 1.08 6.014 6.014 0 0 1-3.709-1.07z" class="cls-5" data-name="Path 1331" transform="translate(-300.66 -61.819)"/>
                    <path id="Path_1332" d="M396.077 71.067a5.666 5.666 0 0 1 2.282-2.269 6.869 6.869 0 0 1 3.356-.806 6.539 6.539 0 0 1 4.177 1.315 5.025 5.025 0 0 1 1.921 3.515h-3.123a2.677 2.677 0 0 0-1.061-1.594 3.3 3.3 0 0 0-1.94-.554 3.091 3.091 0 0 0-2.422 1.021 4.634 4.634 0 0 0-.027 5.49 3.04 3.04 0 0 0 2.422 1.03 3.319 3.319 0 0 0 2.007-.587 2.529 2.529 0 0 0 1.021-1.528h3.122a5.075 5.075 0 0 1-1.942 3.488 6.428 6.428 0 0 1-4.129 1.328 6.928 6.928 0 0 1-3.383-.807 5.627 5.627 0 0 1-2.282-2.282 6.948 6.948 0 0 1-.807-3.4 6.735 6.735 0 0 1 .808-3.36z" class="cls-5" data-name="Path 1332" transform="translate(-383.088 -61.812)"/>
                    <path id="Path_1333" d="M513.4 20h3.056v7.983a3.708 3.708 0 0 1 1.562-1.321 5.056 5.056 0 0 1 2.189-.48 4.256 4.256 0 0 1 3.348 1.328 5.375 5.375 0 0 1 1.188 3.7v7.539h-3.056v-6.832a2.986 2.986 0 0 0-.742-2.334 2.489 2.489 0 0 0-1.674-.644 3.248 3.248 0 0 0-1.969.644 2.526 2.526 0 0 0-.873 2.175v6.992H513.4z" class="cls-5" data-name="Path 1333" transform="translate(-486.007 -20)"/>
                    <path id="Path_1334" d="M621.837 71.133a6.007 6.007 0 0 1 2.362-2.309 7.559 7.559 0 0 1 6.9 0 6 6 0 0 1 2.369 2.309 6.924 6.924 0 0 1 0 6.638 6.006 6.006 0 0 1-2.362 2.318 7.586 7.586 0 0 1-6.912 0 6.017 6.017 0 0 1-2.362-2.311 6.965 6.965 0 0 1 0-6.644zm3.277 6a3.318 3.318 0 0 0 2.535 1.053 3.368 3.368 0 0 0 2.575-1.053 4.181 4.181 0 0 0 0-5.393 3.37 3.37 0 0 0-2.575-1.047 3.323 3.323 0 0 0-2.542 1.047 4.183 4.183 0 0 0 .008 5.393z" class="cls-5" data-name="Path 1334" transform="translate(-579.746 -61.811)"/>
                    <path id="Path_1335" d="M740.562 71.133a6.016 6.016 0 0 1 2.362-2.309 7.561 7.561 0 0 1 6.906 0 6.006 6.006 0 0 1 2.368 2.309 6.924 6.924 0 0 1 0 6.638 6.006 6.006 0 0 1-2.362 2.318 7.585 7.585 0 0 1-6.912 0 6.024 6.024 0 0 1-2.362-2.311 6.937 6.937 0 0 1 0-6.644zm3.276 6a3.318 3.318 0 0 0 2.535 1.053 3.368 3.368 0 0 0 2.575-1.053 4.174 4.174 0 0 0 0-5.393 3.372 3.372 0 0 0-2.575-1.047 3.325 3.325 0 0 0-2.542 1.047 4.185 4.185 0 0 0 .006 5.393z" class="cls-5" data-name="Path 1335" transform="translate(-683.179 -61.81)"/>
                    <path id="Path_1336" d="M864 20h3.052v18.748H864z" class="cls-5" data-name="Path 1336" transform="translate(-791.462 -20)"/>
                    <path id="Path_1337" d="M921.61 68.379v12.182h-2.922V78.84a4.312 4.312 0 0 1-1.795 1.521 5.957 5.957 0 0 1-2.609.56 5.708 5.708 0 0 1-3.009-.793 5.322 5.322 0 0 1-2.035-2.242 8.155 8.155 0 0 1 .04-6.792 5.512 5.512 0 0 1 2.134-2.295 6.061 6.061 0 0 1 3.137-.806 5.982 5.982 0 0 1 2.5.507 4.3 4.3 0 0 1 1.768 1.424l.241-1.545zm-4.063 8.739a3.824 3.824 0 0 0 .967-2.7 3.767 3.767 0 0 0-.941-2.676 3.592 3.592 0 0 0-5 .009 3.808 3.808 0 0 0-.94 2.689 3.862 3.862 0 0 0 .94 2.7 3.2 3.2 0 0 0 2.468 1.03 3.288 3.288 0 0 0 2.507-1.052z" class="cls-5" data-name="Path 1337" transform="translate(-830.25 -61.812)"/>
                    <path id="Path_1338" d="M1046.206 26.987a5.633 5.633 0 0 1 2.114 2.269 7.1 7.1 0 0 1 .773 3.368 7.264 7.264 0 0 1-.773 3.389 5.6 5.6 0 0 1-2.114 2.288 6.2 6.2 0 0 1-5.666.234 4.291 4.291 0 0 1-1.8-1.562l-.228 1.776H1036V20h3.03v7.847a4.118 4.118 0 0 1 1.694-1.227 6.167 6.167 0 0 1 2.372-.439 5.934 5.934 0 0 1 3.11.806zm-1.181 8.336a3.837 3.837 0 0 0 .94-2.7 3.824 3.824 0 0 0-.94-2.689 3.56 3.56 0 0 0-4.978-.013 3.758 3.758 0 0 0-.94 2.676 3.856 3.856 0 0 0 .948 2.722 3.241 3.241 0 0 0 2.494 1.03 3.2 3.2 0 0 0 2.476-1.026z" class="cls-5" data-name="Path 1338" transform="translate(-941.315 -20)"/>
                    <path id="Path_1339" d="M1158.36 20h3.056v18.748h-3.056z" class="cls-5" data-name="Path 1339" transform="translate(-1047.919 -20)"/>
                    <path id="Path_1340" d="M1213.168 79.763a6.654 6.654 0 0 1-3.911 1.147 6.562 6.562 0 0 1-3.316-.82 5.712 5.712 0 0 1-2.228-2.295 7.064 7.064 0 0 1-.795-3.4 6.86 6.86 0 0 1 .807-3.383 5.68 5.68 0 0 1 2.229-2.242 6.494 6.494 0 0 1 3.219-.794 6.4 6.4 0 0 1 3.143.755 5.36 5.36 0 0 1 2.114 2.06 5.942 5.942 0 0 1 .747 3 7.133 7.133 0 0 1-.129 1.508h-9.127a3.066 3.066 0 0 0 .967 2.235 3.349 3.349 0 0 0 2.368.847 3.877 3.877 0 0 0 1.889-.434 2.271 2.271 0 0 0 1.087-1.208h2.976a4.806 4.806 0 0 1-2.04 3.024zm-1.095-6.512a2.67 2.67 0 0 0-.847-2.022 3.047 3.047 0 0 0-2.129-.74 3.232 3.232 0 0 0-2.2.755 2.694 2.694 0 0 0-.921 2.007z" class="cls-5" data-name="Path 1340" transform="translate(-1086.741 -61.802)"/>
                </g>
            </g>
        </g>
    </g>
</svg>
