<svg xmlns="http://www.w3.org/2000/svg" width="32.935" height="30" viewBox="0 0 32.935 30"><g transform="translate(430.96 -281)"><path d="M16.352,283.159,14.9,284.206a.61.61,0,0,0-.224.684l.585,1.695a.615.615,0,0,1,.031.22.642.642,0,0,1-1.01.465l-1.452-1.048a.62.62,0,0,0-.725,0l-1.452,1.048a.642.642,0,0,1-1.01-.465.624.624,0,0,1,.032-.22l.584-1.695a.61.61,0,0,0-.224-.684l-1.452-1.048a.657.657,0,0,1,.362-1.175H10.74a.561.561,0,0,0,.586-.355l.555-1.706a.618.618,0,0,1,1.173,0l.555,1.706a.561.561,0,0,0,.586.355H15.99A.657.657,0,0,1,16.352,283.159Zm12.328,3.409-1.452,1.048A.61.61,0,0,0,27,288.3l.585,1.695a.615.615,0,0,1,.031.22.642.642,0,0,1-1.01.465l-1.452-1.048a.62.62,0,0,0-.725,0l-1.452,1.048a.642.642,0,0,1-1.01-.465.625.625,0,0,1,.032-.22l.584-1.695a.61.61,0,0,0-.224-.684l-1.452-1.048a.657.657,0,0,1,.362-1.175h1.795a.561.561,0,0,0,.586-.355l.555-1.706a.618.618,0,0,1,1.173,0l.555,1.706a.561.561,0,0,0,.586.355h1.795A.657.657,0,0,1,28.68,286.568Zm-24.656,0-1.452,1.048a.61.61,0,0,0-.224.684l.585,1.695a.615.615,0,0,1,.031.22.642.642,0,0,1-1.01.465L.5,289.631a.62.62,0,0,0-.725,0l-1.452,1.048a.642.642,0,0,1-1.01-.465.625.625,0,0,1,.032-.22l.584-1.695a.61.61,0,0,0-.224-.684l-1.452-1.048a.657.657,0,0,1,.362-1.175h1.795A.561.561,0,0,0-1,285.038l.555-1.706a.6.6,0,0,1,.586-.423.6.6,0,0,1,.586.423l.555,1.706a.561.561,0,0,0,.586.355H3.662A.657.657,0,0,1,4.024,286.568Z" transform="translate(-426.96 20.201)" fill="#ed2b34"/><g transform="translate(-422.804 281)"><g transform="translate(0 9.016)"><g transform="translate(0 0)"><path d="M144.157,126.56c-5.032,0-8.157,2.576-8.157,6.749a.859.859,0,0,0,.859.859h14.6a.859.859,0,0,0,.859-.859C152.314,129.145,149.189,126.56,144.157,126.56Zm-6.38,5.89c.567-3.855,4.972-4.173,6.38-4.173s5.813.318,6.38,4.173Z" transform="translate(-136 -126.56)" fill="#ed2b34"/></g></g><g transform="translate(4.079 0)"><g transform="translate(0 0)"><path d="M178.079,42.56a4.079,4.079,0,1,0,4.079,4.079A4.079,4.079,0,0,0,178.079,42.56Zm0,6.44a2.361,2.361,0,1,1,2.361-2.361A2.361,2.361,0,0,1,178.079,49Z" transform="translate(-174 -42.56)" fill="#ed2b34"/></g></g></g></g></svg>