<svg xmlns="http://www.w3.org/2000/svg" width="37.535" height="30" viewBox="0 0 37.535 30"><g transform="translate(0 -42.56)"><g transform="translate(12.04 49.996)"><g transform="translate(0 0)"><path d="M142.728,126.56c-4.15,0-6.728,2.125-6.728,5.567a.708.708,0,0,0,.708.708h12.04a.708.708,0,0,0,.708-.708C149.456,128.692,146.878,126.56,142.728,126.56Zm-5.262,4.858c.467-3.18,4.1-3.442,5.262-3.442s4.795.262,5.262,3.442Z" transform="translate(-136 -126.56)" fill="#38b566"/></g></g><g transform="translate(15.404 42.56)"><g transform="translate(0 0)"><path d="M177.364,42.56a3.364,3.364,0,1,0,3.364,3.364A3.364,3.364,0,0,0,177.364,42.56Zm0,5.312a1.948,1.948,0,1,1,1.948-1.948A1.948,1.948,0,0,1,177.364,47.872Z" transform="translate(-174 -42.56)" fill="#38b566"/></g></g><g transform="translate(0 66.285)"><g transform="translate(0 0)"><path d="M6.728,310.56c-4.15,0-6.728,2.125-6.728,5.567a.708.708,0,0,0,.708.708h12.04a.708.708,0,0,0,.708-.708C13.456,312.692,10.878,310.56,6.728,310.56Zm-5.262,4.858c.467-3.18,4.093-3.442,5.262-3.442s4.795.262,5.262,3.442Z" transform="translate(0 -310.56)" fill="#38b566"/></g></g><g transform="translate(3.364 58.849)"><path d="M41.364,226.56a3.364,3.364,0,1,0,3.364,3.364A3.364,3.364,0,0,0,41.364,226.56Zm0,5.312a1.948,1.948,0,1,1,1.948-1.948A1.948,1.948,0,0,1,41.364,231.872Z" transform="translate(-38 -226.56)" fill="#38b566"/></g><g transform="translate(24.079 66.285)"><g transform="translate(0 0)"><path d="M278.728,310.56c-4.15,0-6.728,2.125-6.728,5.567a.708.708,0,0,0,.708.708h12.04a.708.708,0,0,0,.708-.708C285.456,312.692,282.878,310.56,278.728,310.56Zm-5.262,4.858c.467-3.18,4.094-3.442,5.262-3.442s4.795.262,5.262,3.442Z" transform="translate(-272 -310.56)" fill="#38b566"/></g></g><g transform="translate(27.443 58.849)"><path d="M313.364,226.56a3.364,3.364,0,1,0,3.364,3.364A3.364,3.364,0,0,0,313.364,226.56Zm0,5.312a1.948,1.948,0,1,1,1.948-1.948A1.948,1.948,0,0,1,313.364,231.872Z" transform="translate(-310 -226.56)" fill="#38b566"/></g><g transform="translate(14.894 57.206)"><path d="M175.782,215.854l-2.953-2.967v-4.178a.708.708,0,1,0-1.416,0v4.178l-2.953,2.953a.711.711,0,1,0,1,1.013l2.663-2.67,2.663,2.67a.708.708,0,0,0,1-1Z" transform="translate(-168.247 -208)" fill="#38b566"/></g></g></svg>